<svg width="63" height="63" viewBox="0 0 63 63" fill="none" xmlns="http://www.w3.org/2000/svg">
<path d="M22.834 22.8934C18.0855 18.1449 10.3099 18.1449 5.56137 22.8934C0.812877 27.6419 0.812877 35.4175 5.56137 40.166C10.3099 44.9145 18.0855 44.9145 22.834 40.166M22.834 40.166L23.2495 39.7505L31.5 31.5L39.7505 23.2495L40.166 22.834C44.9145 18.0855 52.6901 18.0855 57.4386 22.834C62.1871 27.5825 62.1871 35.3581 57.4386 40.1066C52.6901 44.8551 44.9145 44.8551 40.166 40.1066M22.834 40.166C18.0855 44.9145 18.0855 52.6901 22.834 57.4386C27.5825 62.1871 35.3582 62.1871 40.1066 57.4386C44.8551 52.6901 44.8551 44.9145 40.1066 40.166M40.1066 40.166L39.6911 39.7505L31.4406 31.5M40.1066 40.166L31.4406 48.832L22.7746 40.166M40.1066 40.166L31.4406 31.5M40.1066 40.166L48.7726 31.5L40.1066 22.834M31.4406 31.5L23.1901 23.2495L22.7746 22.834M31.4406 31.5L22.7746 22.834M31.4406 31.5L40.1066 22.834M31.4406 31.5L22.7746 40.166M22.7746 22.834C18.0262 18.0855 18.0262 10.3099 22.7746 5.56137C27.5231 0.812877 35.2988 0.812877 40.0473 5.56137C44.7958 10.3099 44.7958 18.0855 40.0473 22.834M22.7746 22.834L31.4406 14.168L40.1066 22.834M22.7746 22.834L14.1087 31.5L22.7746 40.166" stroke="url(#paint0_linear_212_24)" stroke-width="4" stroke-miterlimit="10"/>
<defs>
<linearGradient id="paint0_linear_212_24" x1="31.5" y1="2" x2="31.5" y2="61" gradientUnits="userSpaceOnUse">
<stop stop-color="#6E45E2"/>
<stop offset="1" stop-color="#88D3CE"/>
</linearGradient>
</defs>
</svg>
