<svg width="245" height="63" viewBox="0 0 245 63" fill="none" xmlns="http://www.w3.org/2000/svg">
<path d="M84.8 39.81H79.58L74.63 31.06H72.51V39.81H68V17.35H76.43C78.17 17.35 79.65 17.6567 80.87 18.27C82.0967 18.8767 83.0133 19.7 83.62 20.74C84.2333 21.7867 84.54 22.9533 84.54 24.24C84.54 25.72 84.11 27.0533 83.25 28.24C82.3967 29.4333 81.12 30.2533 79.42 30.7L84.8 39.81ZM72.51 21.08V27.68H76.27C77.49 27.68 78.4 27.3833 79 26.79C79.6067 26.2033 79.91 25.3833 79.91 24.33C79.91 23.3033 79.6067 22.5067 79 21.94C78.4 21.3667 77.49 21.08 76.27 21.08H72.51ZM105.2 30.51C105.2 31.1567 105.157 31.7367 105.07 32.25H92.04C92.1467 33.5367 92.5967 34.5433 93.39 35.27C94.1833 36.0033 95.16 36.37 96.32 36.37C97.9933 36.37 99.1833 35.65 99.89 34.21H104.75C104.23 35.93 103.243 37.34 101.79 38.44C100.33 39.5467 98.5367 40.1 96.41 40.1C94.6967 40.1 93.16 39.72 91.8 38.96C90.4333 38.2 89.37 37.12 88.61 35.72C87.85 34.3267 87.47 32.72 87.47 30.9C87.47 29.0533 87.8433 27.4333 88.59 26.04C89.3433 24.6467 90.3967 23.5733 91.75 22.82C93.0967 22.0667 94.65 21.69 96.41 21.69C98.1033 21.69 99.6233 22.0567 100.97 22.79C102.31 23.5167 103.35 24.55 104.09 25.89C104.83 27.23 105.2 28.77 105.2 30.51ZM92.07 29.22H100.53C100.51 28.0667 100.093 27.14 99.28 26.44C98.46 25.74 97.46 25.39 96.28 25.39C95.1667 25.39 94.23 25.73 93.47 26.41C92.71 27.0833 92.2433 28.02 92.07 29.22ZM112.98 24.56C113.56 23.7467 114.36 23.0633 115.38 22.51C116.4 21.9633 117.563 21.69 118.87 21.69C120.397 21.69 121.777 22.0667 123.01 22.82C124.243 23.5733 125.22 24.64 125.94 26.02C126.653 27.4067 127.01 29.01 127.01 30.83C127.01 32.6567 126.653 34.2733 125.94 35.68C125.22 37.08 124.243 38.1667 123.01 38.94C121.777 39.7133 120.397 40.1 118.87 40.1C117.563 40.1 116.41 39.8333 115.41 39.3C114.417 38.76 113.607 38.0833 112.98 37.27V48.3H108.48V21.98H112.98V24.56ZM122.41 30.83C122.41 29.7567 122.19 28.83 121.75 28.05C121.31 27.2633 120.73 26.6667 120.01 26.26C119.297 25.8533 118.52 25.65 117.68 25.65C116.867 25.65 116.1 25.86 115.38 26.28C114.66 26.7 114.08 27.3067 113.64 28.1C113.2 28.8933 112.98 29.8267 112.98 30.9C112.98 31.9733 113.2 32.9067 113.64 33.7C114.08 34.4933 114.66 35.0967 115.38 35.51C116.1 35.93 116.867 36.14 117.68 36.14C118.52 36.14 119.297 35.9267 120.01 35.5C120.73 35.0667 121.31 34.4533 121.75 33.66C122.19 32.8667 122.41 31.9233 122.41 30.83ZM134.8 17.35V36.24H142.2V39.81H130.3V17.35H134.8ZM152.98 40.1C151.267 40.1 149.723 39.72 148.35 38.96C146.977 38.2 145.897 37.12 145.11 35.72C144.33 34.3267 143.94 32.72 143.94 30.9C143.94 29.0733 144.343 27.4633 145.15 26.07C145.95 24.6767 147.047 23.6 148.44 22.84C149.84 22.0733 151.397 21.69 153.11 21.69C154.823 21.69 156.377 22.0733 157.77 22.84C159.17 23.6 160.27 24.6767 161.07 26.07C161.877 27.4633 162.28 29.0733 162.28 30.9C162.28 32.72 161.867 34.3267 161.04 35.72C160.213 37.12 159.097 38.2 157.69 38.96C156.29 39.72 154.72 40.1 152.98 40.1ZM152.98 36.17C153.793 36.17 154.56 35.9733 155.28 35.58C156 35.18 156.573 34.5833 157 33.79C157.433 32.9967 157.65 32.0333 157.65 30.9C157.65 29.2 157.203 27.8967 156.31 26.99C155.423 26.0767 154.333 25.62 153.04 25.62C151.753 25.62 150.677 26.0767 149.81 26.99C148.943 27.8967 148.51 29.2 148.51 30.9C148.51 32.5933 148.933 33.8967 149.78 34.81C150.627 35.7167 151.693 36.17 152.98 36.17ZM173.51 40.1C171.797 40.1 170.253 39.72 168.88 38.96C167.507 38.2 166.427 37.12 165.64 35.72C164.86 34.3267 164.47 32.72 164.47 30.9C164.47 29.0733 164.87 27.4633 165.67 26.07C166.477 24.6767 167.577 23.6 168.97 22.84C170.363 22.0733 171.92 21.69 173.64 21.69C175.353 21.69 176.907 22.0733 178.3 22.84C179.7 23.6 180.8 24.6767 181.6 26.07C182.407 27.4633 182.81 29.0733 182.81 30.9C182.81 32.72 182.397 34.3267 181.57 35.72C180.743 37.12 179.627 38.2 178.22 38.96C176.82 39.72 175.25 40.1 173.51 40.1ZM173.51 36.17C174.323 36.17 175.09 35.9733 175.81 35.58C176.53 35.18 177.103 34.5833 177.53 33.79C177.963 32.9967 178.18 32.0333 178.18 30.9C178.18 29.2 177.733 27.8967 176.84 26.99C175.947 26.0767 174.857 25.62 173.57 25.62C172.283 25.62 171.207 26.0767 170.34 26.99C169.473 27.8967 169.04 29.2 169.04 30.9C169.04 32.5933 169.463 33.8967 170.31 34.81C171.157 35.7167 172.223 36.17 173.51 36.17ZM202.53 39.81H196.68L190.63 32.22V39.81H186.12V16H190.63V29.55L196.61 21.98H202.47L194.62 30.93L202.53 39.81ZM217.21 21.98H221.74V39.81H217.21V37.56C216.63 38.3333 215.873 38.94 214.94 39.38C214.007 39.82 212.993 40.04 211.9 40.04C210.507 40.04 209.273 39.7433 208.2 39.15C207.127 38.5633 206.283 37.6933 205.67 36.54C205.057 35.3933 204.75 34.0267 204.75 32.44V21.98H209.26V31.8C209.26 33.2133 209.613 34.3 210.32 35.06C211.027 35.8267 211.993 36.21 213.22 36.21C214.46 36.21 215.433 35.8267 216.14 35.06C216.853 34.3 217.21 33.2133 217.21 31.8V21.98ZM230.69 24.56C231.27 23.7467 232.07 23.0633 233.09 22.51C234.103 21.9633 235.267 21.69 236.58 21.69C238.1 21.69 239.477 22.0667 240.71 22.82C241.943 23.5733 242.92 24.64 243.64 26.02C244.36 27.4067 244.72 29.01 244.72 30.83C244.72 32.6567 244.36 34.2733 243.64 35.68C242.92 37.08 241.943 38.1667 240.71 38.94C239.477 39.7133 238.1 40.1 236.58 40.1C235.267 40.1 234.113 39.8333 233.12 39.3C232.12 38.76 231.31 38.0833 230.69 37.27V48.3H226.18V21.98H230.69V24.56ZM240.12 30.83C240.12 29.7567 239.9 28.83 239.46 28.05C239.02 27.2633 238.44 26.6667 237.72 26.26C237 25.8533 236.223 25.65 235.39 25.65C234.57 25.65 233.803 25.86 233.09 26.28C232.37 26.7 231.79 27.3067 231.35 28.1C230.91 28.8933 230.69 29.8267 230.69 30.9C230.69 31.9733 230.91 32.9067 231.35 33.7C231.79 34.4933 232.37 35.0967 233.09 35.51C233.803 35.93 234.57 36.14 235.39 36.14C236.223 36.14 237 35.9267 237.72 35.5C238.44 35.0667 239.02 34.4533 239.46 33.66C239.9 32.8667 240.12 31.9233 240.12 30.83Z" fill="#1C085D"/>
<path d="M22.834 22.8934C18.0855 18.1449 10.3099 18.1449 5.56137 22.8934C0.812877 27.6419 0.812877 35.4175 5.56137 40.166C10.3099 44.9145 18.0855 44.9145 22.834 40.166M22.834 40.166L23.2495 39.7505L31.5 31.5L39.7505 23.2495L40.166 22.834C44.9145 18.0855 52.6901 18.0855 57.4386 22.834C62.1871 27.5825 62.1871 35.3581 57.4386 40.1066C52.6901 44.8551 44.9145 44.8551 40.166 40.1066M22.834 40.166C18.0855 44.9145 18.0855 52.6901 22.834 57.4386C27.5825 62.1871 35.3582 62.1871 40.1066 57.4386C44.8551 52.6901 44.8551 44.9145 40.1066 40.166M40.1066 40.166L39.6911 39.7505L31.4406 31.5M40.1066 40.166L31.4406 48.832L22.7746 40.166M40.1066 40.166L31.4406 31.5M40.1066 40.166L48.7726 31.5L40.1066 22.834M31.4406 31.5L23.1901 23.2495L22.7746 22.834M31.4406 31.5L22.7746 22.834M31.4406 31.5L40.1066 22.834M31.4406 31.5L22.7746 40.166M22.7746 22.834C18.0262 18.0855 18.0262 10.3099 22.7746 5.56137C27.5231 0.812877 35.2988 0.812877 40.0473 5.56137C44.7958 10.3099 44.7958 18.0855 40.0473 22.834M22.7746 22.834L31.4406 14.168L40.1066 22.834M22.7746 22.834L14.1087 31.5L22.7746 40.166" stroke="url(#paint0_linear_212_31)" stroke-width="4" stroke-miterlimit="10"/>
<defs>
<linearGradient id="paint0_linear_212_31" x1="31.5" y1="2" x2="31.5" y2="61" gradientUnits="userSpaceOnUse">
<stop stop-color="#6E45E2"/>
<stop offset="1" stop-color="#88D3CE"/>
</linearGradient>
</defs>
</svg>
